<svg xmlns="http://www.w3.org/2000/svg" width="512" height="512" viewBox="0 0 512 512">
  <g fill="none" fill-rule="evenodd">
    <circle cx="256" cy="256" r="256" fill="#7BC144"/>
    <path fill="#FFFFFF" fill-rule="nonzero" d="M319.080663,97.4162293 C318.65183,96.5585635 318.65183,96.1297307 318.222997,95.2720649 C318.222997,94.843232 317.794164,94.843232 317.794164,94.4143992 C317.365331,93.5567334 316.936499,93.1279006 316.078833,92.2702348 C316.078833,92.2702348 316.078833,91.8414019 315.65,91.8414019 C314.792334,90.9837362 314.363501,90.5549033 313.505836,90.1260704 L313.505836,90.1260704 L166.41616,2.21533149 L165.987327,2.21533149 C165.129662,1.78649862 164.700829,1.35766575 163.843163,1.35766575 C163.41433,1.35766575 163.41433,1.35766575 162.985497,0.928832873 C162.127831,0.5 160.841333,0.5 159.983667,0.5 C159.126001,0.5 157.839503,0.5 156.981837,0.928832873 C156.553004,0.928832873 156.553004,0.928832873 156.124171,1.35766575 C155.266506,1.78649862 154.40884,1.78649862 153.980007,2.21533149 L153.551174,2.21533149 L6.46149862,90.5549033 L6.46149862,90.5549033 C5.60383287,90.9837362 4.74616713,91.8414019 4.31733425,92.2702348 C4.31733425,92.2702348 4.31733425,92.6990677 3.88850138,92.6990677 C3.45966851,93.1279006 2.60200276,93.9855663 2.17316989,94.843232 C2.17316989,95.2720649 1.74433702,95.2720649 1.74433702,95.7008978 C1.31550414,96.5585635 1.31550414,96.9873964 0.886671271,97.8450622 C0.886671271,98.273895 0.886671271,98.273895 0.457838398,98.7027279 C0.0290055249,99.5603936 0.0290055249,100.846892 0.0290055249,101.704558 L0.0290055249,209.770442 C0.0290055249,214.487604 2.60200276,218.347099 6.46149862,220.920097 L153.551174,309.259669 L153.980007,309.259669 C154.837673,309.688501 155.266506,310.117334 156.124171,310.117334 C156.553004,310.117334 156.553004,310.117334 156.981837,310.546167 C157.839503,310.975 159.126001,310.975 159.983667,310.975 C160.841333,310.975 162.127831,310.975 162.985497,310.546167 C163.41433,310.546167 163.41433,310.546167 163.843163,310.117334 C164.700829,309.688501 165.558494,309.688501 165.987327,309.259669 L166.41616,309.259669 L313.505836,220.920097 C317.365331,218.775932 319.938329,214.487604 319.938329,209.770442 L319.938329,101.275725 C319.938329,100.418059 319.938329,99.1315608 319.509496,98.273895 C319.509496,98.273895 319.509496,97.8450622 319.080663,97.4162293 Z M37.7662983,101.275725 L159.983667,27.9453039 L208.441782,57.1059392 L86.6532459,130.43636 L37.7662983,101.275725 Z M111.525552,145.445511 L233.742921,72.1150898 L282.201036,101.275725 L159.983667,174.606146 L111.525552,145.445511 Z M25.7589779,124.003867 L79.7919199,156.595166 L147.118681,196.905456 L147.118681,274.953039 L25.7589779,202.05145 L25.7589779,124.003867 Z M172.848653,274.953039 L172.848653,196.905456 L294.208356,124.003867 L294.208356,202.05145 L172.848653,274.953039 Z" transform="translate(96 100)"/>
  </g>
</svg>
