<svg xmlns="http://www.w3.org/2000/svg" width="512" height="512" viewBox="0 0 512 512">
  <path fill="#FFFFFF" d="M510.627346,155.10992 C509.941019,153.737265 509.941019,153.050938 509.254692,151.678284 C509.254692,150.991957 508.568365,150.991957 508.568365,150.30563 C507.882038,148.932976 507.19571,148.246649 505.823056,146.873995 C505.823056,146.873995 505.823056,146.187668 505.136729,146.187668 C503.764075,144.815013 503.077748,144.128686 501.705094,143.442359 L501.705094,143.442359 L266.294906,2.74530831 L265.608579,2.74530831 C264.235925,2.05898123 263.549598,1.37265416 262.176944,1.37265416 C261.490617,1.37265416 261.490617,1.37265416 260.80429,0.686327078 C259.431635,0 257.372654,0 256,0 C254.627346,0 252.568365,0 251.19571,0.686327078 C250.509383,0.686327078 250.509383,0.686327078 249.823056,1.37265416 C248.450402,2.05898123 247.077748,2.05898123 246.391421,2.74530831 L245.705094,2.74530831 L10.2949062,144.128686 L10.2949062,144.128686 C8.92225201,144.815013 7.54959786,146.187668 6.86327078,146.873995 C6.86327078,146.873995 6.86327078,147.560322 6.1769437,147.560322 C5.49061662,148.246649 4.11796247,149.619303 3.43163539,150.991957 C3.43163539,151.678284 2.74530831,151.678284 2.74530831,152.364611 C2.05898123,153.737265 2.05898123,154.423592 1.37265416,155.796247 C1.37265416,156.482574 1.37265416,156.482574 0.686327078,157.168901 C0,158.541555 0,160.600536 0,161.97319 L0,334.927614 C0,342.477212 4.11796247,348.654155 10.2949062,352.772118 L245.705094,494.155496 L246.391421,494.155496 C247.764075,494.841823 248.450402,495.52815 249.823056,495.52815 C250.509383,495.52815 250.509383,495.52815 251.19571,496.214477 C252.568365,496.900804 254.627346,496.900804 256,496.900804 C257.372654,496.900804 259.431635,496.900804 260.80429,496.214477 C261.490617,496.214477 261.490617,496.214477 262.176944,495.52815 C263.549598,494.841823 264.922252,494.841823 265.608579,494.155496 L266.294906,494.155496 L501.705094,352.772118 C507.882038,349.340483 512,342.477212 512,334.927614 L512,161.286863 C512,159.914209 512,157.855228 511.313673,156.482574 C511.313673,156.482574 511.313673,155.796247 510.627346,155.10992 Z M60.3967828,161.286863 L256,43.924933 L333.55496,90.5951743 L138.63807,207.957105 L60.3967828,161.286863 Z M178.44504,231.978552 L374.048257,114.616622 L451.603217,161.286863 L256,278.648794 L178.44504,231.978552 Z M41.1796247,197.662198 L127.656836,249.823056 L235.410188,314.337802 L235.410188,439.24933 L41.1796247,322.573727 L41.1796247,197.662198 Z M276.589812,439.24933 L276.589812,314.337802 L470.820375,197.662198 L470.820375,322.573727 L276.589812,439.24933 Z" transform="translate(0 8)"/>
</svg>
